<?xml version="1.0" encoding="utf-8"?>
<!-- Generator: Adobe Illustrator 16.0.0, SVG Export Plug-In . SVG Version: 6.00 Build 0)  -->
<!DOCTYPE svg PUBLIC "-//W3C//DTD SVG 1.1//EN" "http://www.w3.org/Graphics/SVG/1.1/DTD/svg11.dtd">
<svg version="1.1" id="Layer_1" xmlns="http://www.w3.org/2000/svg" xmlns:xlink="http://www.w3.org/1999/xlink" x="0px" y="0px"
	 width="120px" height="120px" viewBox="0 0 150 150" enable-background="new 0 0 150 150" xml:space="preserve">
<g>
	<path fill="#232937" d="M61.424,121.258c-0.007-3.997-0.009-7.992-0.031-11.988c-0.004-0.634,0.276-0.803,0.866-0.813
		c1.977-0.043,1.976-0.062,1.979-2.08c0.001-0.504,0.028-1.008-0.005-1.51c-0.042-0.64,0.195-0.902,0.859-0.908
		c1.278-0.01,1.256-0.035,0.947-1.284c-1.541-6.203-4.984-11.044-10.385-14.467c-0.637-0.404-0.79-0.764-0.431-1.477
		c1.269-2.521,2.458-5.08,3.696-7.617c4.02-8.236,8.047-16.469,12.071-24.705c0.392-0.803,0.779-1.609,1.155-2.422
		c0.188-0.406,0.479-0.572,0.925-0.566c1.229,0.016,2.459,0.031,3.689-0.008c0.607-0.019,0.9,0.264,1.142,0.771
		c1.399,2.954,2.817,5.9,4.232,8.847c2.646,5.517,5.303,11.03,7.948,16.548c1.483,3.099,2.942,6.21,4.453,9.3
		c0.289,0.593,0.142,0.888-0.359,1.226c-2.467,1.668-4.759,3.549-6.567,5.932c-2.076,2.738-3.226,5.918-4.113,9.203
		c-0.139,0.508,0.076,0.701,0.593,0.729c1.358,0.078,1.358,0.097,1.362,1.484c0.004,0.756,0.019,1.511-0.004,2.266
		c-0.016,0.525,0.172,0.736,0.725,0.757c2.141,0.071,2.132,0.088,2.123,2.223c-0.014,3.521-0.018,7.041-0.027,10.563
		C79.318,121.258,70.371,121.258,61.424,121.258z M73.478,56.172c-0.054-0.017-0.107-0.035-0.161-0.052
		c-0.14,0.265-0.289,0.526-0.42,0.796c-1.673,3.443-3.341,6.89-5.015,10.332c-3.031,6.232-6.053,12.469-9.112,18.688
		c-0.337,0.685-0.178,1.006,0.379,1.438c2.506,1.949,4.786,4.125,6.458,6.858c1.676,2.744,2.77,5.729,3.532,8.841
		c0.121,0.489,0.224,0.901,0.875,0.897c3.27-0.015,6.541-0.01,9.811,0c0.464,0,0.724-0.186,0.844-0.633
		c0.21-0.783,0.42-1.566,0.673-2.334c1.057-3.195,2.256-6.318,4.408-8.979c1.396-1.729,3.011-3.233,4.785-4.551
		c0.761-0.566,0.879-1.05,0.393-1.849c-0.463-0.761-0.783-1.606-1.174-2.41c-4.32-8.868-8.641-17.735-12.965-26.6
		c-0.08-0.168-0.104-0.421-0.422-0.468c0,0.515,0,0.988,0,1.461c0.002,5.926,0.018,11.851-0.012,17.777
		c-0.004,0.847,0.188,1.345,1.016,1.753c2.182,1.076,3.197,3.655,2.499,5.992c-0.672,2.251-2.952,3.891-5.199,3.737
		c-2.392-0.163-4.377-1.888-4.833-4.195c-0.467-2.366,0.704-4.728,2.922-5.743c0.553-0.255,0.729-0.57,0.727-1.145
		c-0.019-3.243-0.008-6.485-0.008-9.727C73.478,62.765,73.478,59.469,73.478,56.172z M75.017,111.236
		c-3.188,0-6.374,0.02-9.56-0.014c-0.742-0.008-1.058,0.188-1.037,0.983c0.047,1.815,0.038,3.635,0.01,5.449
		c-0.01,0.651,0.215,0.883,0.874,0.882c6.457-0.016,12.914-0.02,19.37,0.003c0.725,0.004,0.904-0.276,0.893-0.94
		c-0.03-1.787-0.041-3.576,0.002-5.365c0.019-0.756-0.202-1.023-0.991-1.015C81.391,111.261,78.203,111.236,75.017,111.236z
		 M75.001,106.859c0,0.002,0,0.002,0,0.004c-2.316,0-4.631,0.011-6.946-0.008c-0.587-0.004-0.946,0.092-0.943,0.813
		c0.003,0.721,0.368,0.805,0.95,0.803c4.63-0.014,9.262-0.014,13.893,0.002c0.59,0,0.936-0.094,0.934-0.813
		c-0.004-0.719-0.354-0.814-0.94-0.809C79.632,106.871,77.316,106.859,75.001,106.859z M77.191,81.576
		c0.009-1.404-0.963-2.391-2.348-2.378c-1.21,0.009-2.292,1.11-2.284,2.323c0.009,1.295,1.035,2.297,2.361,2.308
		C76.232,83.839,77.182,82.895,77.191,81.576z"/>
	<path fill="#232937" d="M60.877,43.41c-2.972,0-5.82-0.001-8.667,0c-2.628,0.001-5.256,0.024-7.883-0.003
		c-0.642-0.007-1.004,0.188-1.309,0.775c-1.358,2.625-4.471,3.425-6.938,1.827c-2.371-1.537-2.961-4.823-1.267-7.071
		c1.695-2.252,5.106-2.585,7.229-0.709c0.386,0.34,0.697,0.754,0.877,1.214c0.309,0.784,0.842,0.949,1.633,0.945
		c6.374-0.03,12.748-0.017,19.121-0.017c0.923,0,1.845,0.003,2.768,0.002c1.361-0.002,1.362-0.003,1.365-1.405
		c0.002-0.923,0.016-1.846-0.006-2.768c-0.015-0.63,0.216-0.893,0.883-0.889c3.941,0.022,7.885,0.023,11.827,0
		c0.692-0.004,0.945,0.238,0.924,0.924c-0.035,1.09,0.039,2.183-0.021,3.27c-0.045,0.814,0.248,1.042,1.049,1.04
		c7.129-0.028,14.259-0.018,21.388-0.019c0.67,0,1.344-0.042,2.012,0.014c0.731,0.063,1.143-0.177,1.492-0.868
		c0.97-1.913,2.873-2.807,5.039-2.498c1.967,0.281,3.565,1.791,4.01,3.786c0.506,2.278-0.713,4.664-2.855,5.588
		c-2.259,0.974-4.559,0.272-5.93-1.817c-0.184-0.28-0.357-0.569-0.5-0.872c-0.15-0.323-0.391-0.451-0.73-0.45
		c-5.227,0.007-10.453,0.011-15.682,0.021c-0.041,0-0.081,0.056-0.191,0.136c1.377,0.741,2.779,1.351,4.074,2.159
		c9.406,5.873,15.186,14.231,17.223,25.148c0.222,1.174,0.201,1.178,1.414,1.186c2.422,0.015,2.422,0.015,2.422,2.432
		c0,1.957-0.021,3.915,0.012,5.87c0.011,0.699-0.188,1.013-0.944,1.003c-2.487-0.031-4.976-0.021-7.463,0
		c-0.642,0.008-0.903-0.218-0.897-0.875c0.021-2.517,0.021-5.032,0-7.548c-0.006-0.647,0.228-0.878,0.881-0.888
		c2.033-0.03,2.011-0.047,1.566-2.096c-1.361-6.311-4.277-11.81-8.761-16.429c-4.802-4.947-10.63-8.106-17.379-9.545
		c-1.068-0.228-1.076-0.2-1.078,0.885c-0.004,1.09-0.019,2.181,0.004,3.271c0.013,0.595-0.201,0.857-0.827,0.855
		c-4.023-0.013-8.052-0.013-12.077,0.008c-0.665,0.003-0.893-0.268-0.877-0.899c0.023-1.006-0.007-2.013,0.008-3.019
		c0.009-0.624-0.176-0.858-0.853-0.668c-10.059,2.818-17.375,8.904-21.905,18.329c-1.268,2.639-2.099,5.414-2.629,8.285
		c-0.17,0.921-0.091,1.018,0.846,1.035c2.077,0.039,2.077,0.039,2.077,2.107c0,2.068-0.021,4.139,0.01,6.205
		c0.011,0.715-0.22,0.997-0.962,0.986c-2.487-0.03-4.976-0.023-7.464,0.002c-0.656,0.006-0.886-0.244-0.88-0.891
		c0.022-2.517,0.023-5.033,0-7.549c-0.007-0.665,0.256-0.91,0.895-0.867c0.445,0.03,0.9-0.042,1.34,0.014
		c0.845,0.105,1.185-0.249,1.302-1.077c0.412-2.893,1.237-5.683,2.395-8.359c3.697-8.546,9.814-14.765,18.207-18.768
		c0.176-0.084,0.353-0.166,0.528-0.251C60.737,43.612,60.749,43.58,60.877,43.41z M70.529,42.07c0,1.09,0.014,2.181-0.006,3.27
		c-0.009,0.518,0.166,0.774,0.72,0.772c2.152-0.012,4.304-0.012,6.455,0.004c0.606,0.004,0.854-0.247,0.849-0.851
		c-0.016-2.152-0.015-4.304-0.006-6.455c0.002-0.523-0.209-0.77-0.744-0.767c-2.18,0.007-4.36,0.009-6.539-0.003
		c-0.54-0.002-0.745,0.23-0.735,0.761C70.544,39.89,70.529,40.981,70.529,42.07z M109.587,42.049
		c0.013,1.219,0.704,1.871,1.97,1.854c1.176-0.015,2.006-0.855,1.992-2.018c-0.014-1.184-0.91-2.116-2.033-2.116
		C110.398,39.771,109.572,40.746,109.587,42.049z M38.697,43.906c1.235,0.01,2.072-0.764,2.066-1.911
		c-0.005-1.099-0.97-2.057-2.093-2.08c-1.168-0.022-2.019,0.82-2.009,1.99C36.67,43.016,37.566,43.896,38.697,43.906z
		 M40.495,78.471c1.987-0.016,1.818,0.209,1.811-1.787c-0.007-1.896,0.14-1.746-1.709-1.73c-2.029,0.018-1.791-0.207-1.803,1.795
		C38.781,78.641,38.595,78.439,40.495,78.471z M110.967,78.471c1.975-0.016,1.801,0.205,1.795-1.803
		c-0.007-1.882,0.139-1.731-1.724-1.714c-2.013,0.017-1.774-0.208-1.789,1.81C109.236,78.646,109.063,78.439,110.967,78.471z"/>
	<path fill="#232937" d="M77.191,81.576c-0.01,1.318-0.959,2.264-2.271,2.253c-1.327-0.011-2.352-1.013-2.361-2.308
		c-0.007-1.213,1.075-2.314,2.284-2.323C76.229,79.188,77.2,80.172,77.191,81.576z"/>
</g>
<path fill="none" d="M-337.109-5.33c-5.056-0.041-9.061-3.977-9.104-8.947c-0.046-5.226,3.762-8.997,8.982-8.894
	c5.02,0.099,9.332,4.384,9.357,9.298C-327.849-8.747-331.592-5.285-337.109-5.33z"/>
<path fill="none" d="M-329.074,149.202c-8.495-0.132-7.661,0.767-7.608-7.696c0.056-8.954-1.008-7.949,8.062-8.027
	c8.265-0.069,7.608-0.74,7.641,7.735C-320.945,150.133-320.189,149.135-329.074,149.202z"/>
<ellipse fill="none" stroke="#232937" stroke-width="2" stroke-miterlimit="10" cx="75.179" cy="75" rx="71.624" ry="72.719"/>
</svg>
