<?xml version="1.0" encoding="utf-8"?>
<!-- Generator: Adobe Illustrator 16.0.0, SVG Export Plug-In . SVG Version: 6.00 Build 0)  -->
<!DOCTYPE svg PUBLIC "-//W3C//DTD SVG 1.1//EN" "http://www.w3.org/Graphics/SVG/1.1/DTD/svg11.dtd">
<svg version="1.1" id="Layer_1" xmlns="http://www.w3.org/2000/svg" xmlns:xlink="http://www.w3.org/1999/xlink" x="0px" y="0px"
	 width="120px" height="120px" viewBox="0 0 150 150" enable-background="new 0 0 150 150" xml:space="preserve">
<ellipse fill="none" stroke="#232937" stroke-width="2" stroke-miterlimit="10" cx="75.017" cy="75.649" rx="71.625" ry="72.719"/>
<g>
	<path fill="#232937" d="M51.733,75.623c0-12.739,0-25.478,0-38.216c0-4.644,2.207-8.079,5.962-9.184
		c1.356-0.399,2.764-0.2,4.146-0.238c1.885-0.053,3.771,0.056,5.656,0.013c1.385-0.031,2.774-0.019,4.157-0.02
		c3.244,0,6.485,0.015,9.729-0.018c3.328-0.034,6.657-0.021,9.982,0.108c3.419,0.133,6.558,3.818,6.777,7.876
		c0.28,5.185,0.104,10.379,0.113,15.569c0.026,16.511,0.012,33.022,0.012,49.535c0,4.097,0.008,8.191-0.002,12.287
		c-0.009,2.754-0.492,5.317-2.265,7.347c-1.474,1.687-3.252,2.627-5.306,2.635c-10.471,0.037-20.942,0.054-31.416,0.01
		c-4.231-0.02-7.516-3.987-7.53-9.003c-0.027-9.677-0.01-19.351-0.012-29.025c0-3.225,0-6.45,0-9.676
		C51.737,75.623,51.735,75.623,51.733,75.623z M54.456,71.572c-0.002,0-0.004,0-0.007,0c0,10.512,0.006,21.025-0.01,31.537
		c-0.001,0.828,0.145,1.197,0.963,1.195c13.026-0.025,26.053-0.024,39.079,0.002c0.814,0.002,1.103-0.218,1.102-1.229
		c-0.023-20.96-0.023-41.919-0.002-62.879c0-0.978-0.25-1.271-1.088-1.269c-12.941,0.028-25.884,0.021-38.827,0.027
		c-1.197,0-1.207,0.013-1.208,1.371C54.455,50.741,54.456,61.156,54.456,71.572z M74.898,120.195c5.247,0,10.493,0.018,15.741-0.008
		c2.787-0.014,4.883-2.461,4.918-5.701c0.023-2.063-0.021-4.127,0.014-6.188c0.014-0.76-0.204-1.021-0.858-1.006
		c-1.748,0.039-3.498,0.017-5.246,0.015c-11.327,0-22.654,0.008-33.98-0.02c-0.792-0.002-1.078,0.258-1.05,1.199
		c0.055,1.869,0.123,3.75-0.003,5.605c-0.22,3.25,2.173,6.235,5.229,6.146C64.735,120.088,69.818,120.198,74.898,120.195z
		 M74.929,35.801c6.465,0,12.932,0.002,19.399-0.002c1.146,0,1.293-0.249,0.758-1.456c-0.962-2.174-2.521-3.284-4.633-3.291
		c-4.023-0.012-8.047-0.002-12.071-0.002c-6.245,0-12.489-0.002-18.733,0c-2.166,0.001-3.802,1.068-4.782,3.334
		c-0.542,1.255-0.435,1.417,0.747,1.417C62.052,35.805,68.491,35.804,74.929,35.801z"/>
	<path fill="none" d="M74.929,35.803c-6.438,0.001-12.877,0.002-19.315,0c-1.182,0-1.289-0.163-0.747-1.417
		c0.981-2.267,2.616-3.333,4.782-3.334c6.244-0.002,12.488,0,18.733,0c4.022,0,8.048-0.01,12.071,0.002
		c2.109,0.006,3.671,1.116,4.633,3.291c0.535,1.208,0.391,1.455-0.758,1.456C87.861,35.804,81.395,35.801,74.929,35.803z"/>
	<path fill="#232937" d="M91.811,71.127c0.021,0.581-0.225,1.001-0.547,1.375c-2.02,2.346-4.033,4.699-6.063,7.033
		c-0.706,0.813-1.496,0.877-2.063,0.238c-0.574-0.652-0.56-1.562,0.137-2.393c1.566-1.867,3.154-3.716,4.763-5.537
		c0.448-0.508,0.519-0.833,0.024-1.388c-1.574-1.764-3.103-3.585-4.642-5.391c-0.231-0.272-0.479-0.547-0.647-0.87
		c-0.328-0.613-0.285-1.237,0.139-1.781c0.449-0.577,1.006-0.655,1.588-0.321c0.242,0.139,0.457,0.364,0.65,0.589
		c2.004,2.318,4,4.646,6,6.968C91.512,70.071,91.844,70.499,91.811,71.127z"/>
	<path fill="#232937" d="M67.265,78.77c-0.055,0.551-0.273,1.024-0.74,1.277c-0.564,0.307-1.102,0.168-1.541-0.313
		c-0.727-0.797-1.427-1.627-2.134-2.447c-1.375-1.594-2.755-3.184-4.119-4.792c-0.854-1.008-0.849-1.719,0.017-2.73
		c2.055-2.402,4.118-4.795,6.185-7.183c0.695-0.802,1.493-0.896,2.06-0.279c0.635,0.692,0.59,1.552-0.169,2.444
		c-1.601,1.879-3.198,3.766-4.839,5.599c-0.53,0.593-0.609,0.95-0.027,1.589c1.592,1.751,3.115,3.588,4.669,5.385
		C66.968,77.717,67.255,78.141,67.265,78.77z"/>
	<path fill="#232937" d="M78.859,61.91c1.041-0.021,1.646,1.183,1.132,2.35c-0.392,0.886-0.87,1.722-1.31,2.58
		c-2.053,4.016-4.104,8.032-6.158,12.049c-0.099,0.195-0.189,0.396-0.303,0.578c-0.458,0.729-1.235,0.942-1.832,0.514
		c-0.574-0.414-0.799-1.267-0.434-2.032c0.75-1.579,1.549-3.128,2.34-4.68c1.738-3.41,3.482-6.815,5.227-10.22
		C77.826,62.453,78.176,61.914,78.859,61.91z"/>
	<path fill="#232937" d="M75.022,114.645c-0.914,0-1.827,0.021-2.739-0.006c-0.901-0.027-1.398-0.59-1.39-1.509
		c0.008-0.925,0.492-1.474,1.409-1.485c1.797-0.024,3.597-0.022,5.394,0.002c0.861,0.012,1.438,0.658,1.418,1.498
		c-0.021,0.865-0.58,1.474-1.438,1.496C76.793,114.665,75.906,114.646,75.022,114.645z"/>
</g>
</svg>
