<?xml version="1.0" encoding="utf-8"?>
<!-- Generator: Adobe Illustrator 16.0.0, SVG Export Plug-In . SVG Version: 6.00 Build 0)  -->
<!DOCTYPE svg PUBLIC "-//W3C//DTD SVG 1.1//EN" "http://www.w3.org/Graphics/SVG/1.1/DTD/svg11.dtd">
<svg version="1.1" id="Layer_1" xmlns="http://www.w3.org/2000/svg" xmlns:xlink="http://www.w3.org/1999/xlink" x="0px" y="0px"
	 width="120px" height="120px" viewBox="0 0 150 150" enable-background="new 0 0 150 150" xml:space="preserve">
<g>
	<g>
		<path fill="#232937" d="M74.659,43.279c12.76,0,25.521-0.002,38.278,0.001c2.263,0,3.275,1.025,3.275,3.263
			c-0.004,16.273-0.002,32.546-0.004,48.818c-0.002,2.365-0.986,3.351-3.361,3.351c-11.377,0.002-22.756,0-34.133,0.002
			c-1.223,0-1.223,0.001-1.225,1.229c0,3.832,0.018,7.664-0.014,11.494c-0.006,0.742,0.198,1.013,0.973,0.998
			c2.42-0.043,4.84-0.016,7.26-0.016c1.219,0,2.096,0.557,2.609,1.652c0.449,0.953,0.266,1.23-0.781,1.23
			c-4.436,0.006-8.871,0.006-13.307,0.006c-4.146,0-8.295,0-12.443-0.006c-1.043-0.001-1.227-0.281-0.777-1.234
			c0.518-1.094,1.398-1.65,2.613-1.651c2.42-0.003,4.84-0.031,7.26,0.017c0.775,0.015,0.973-0.242,0.967-0.99
			c-0.033-3.916-0.029-7.834,0.002-11.752c0.006-0.739-0.188-0.992-0.967-0.991c-11.492,0.022-22.984,0.015-34.477,0.016
			c-2.253,0-3.287-1.007-3.287-3.249c-0.005-16.359-0.006-32.721-0.006-49.081c0-2.006,1.095-3.109,3.09-3.109
			c12.816-0.002,25.635,0,38.451,0C74.659,43.276,74.659,43.277,74.659,43.279z M74.604,93.061c12.561,0,25.119-0.004,37.678,0.01
			c0.661,0,1.061-0.043,1.059-0.9c-0.022-15.036-0.021-30.073-0.006-45.11c0-0.666-0.183-0.982-0.881-0.892
			c-0.197,0.026-0.402,0-0.604,0c-24.832,0-49.664,0-74.496,0c-1.343,0-1.347,0.004-1.346,1.372c0,14.778,0.002,29.556,0.003,44.335
			c0,1.188-0.003,1.188,1.172,1.188C49.657,93.061,62.13,93.061,74.604,93.061z"/>
		<path fill="#232937" d="M82.573,84.511c-0.296,0.017-0.39-0.143-0.509-0.266c-1.625-1.666-1.614-1.806,0.22-3.188
			c4.25-3.209,8.489-6.435,12.762-9.618c0.66-0.491,0.617-0.729,0.033-1.262c-4.642-4.225-9.24-8.494-13.877-12.723
			c-0.591-0.538-0.617-0.863-0.031-1.423c1.41-1.347,1.371-1.361,2.824-0.029c5.241,4.803,10.496,9.594,15.739,14.396
			c0.798,0.731,0.783,0.744-0.053,1.37c-5.492,4.099-10.981,8.199-16.474,12.296C82.979,84.234,82.743,84.393,82.573,84.511z"/>
		<path fill="#232937" d="M65.913,56.673c-0.018,0.334-0.256,0.479-0.439,0.648c-3.199,2.945-6.4,5.888-9.604,8.828
			c-1.484,1.363-2.959,2.737-4.471,4.072c-0.525,0.466-0.537,0.725,0.051,1.164c4.566,3.415,9.1,6.873,13.668,10.283
			c0.65,0.484,0.764,0.821,0.234,1.488c-1.189,1.496-1.16,1.531-2.682,0.396c-5.289-3.938-10.566-7.89-15.869-11.81
			c-0.646-0.477-0.654-0.761-0.068-1.295c5.541-5.034,11.066-10.085,16.578-15.153c0.561-0.517,0.938-0.508,1.402,0.068
			C65.091,55.83,65.604,56.176,65.913,56.673z"/>
		<path fill="#232937" d="M78.702,56.633c-0.412,1.408-0.816,2.819-1.236,4.225c-2.191,7.305-4.387,14.607-6.576,21.914
			c-0.381,1.268-0.373,1.278-1.631,0.891c-1.654-0.514-1.705-0.104-1.098-2.133c2.51-8.352,5.008-16.704,7.508-25.06
			c0.343-1.147,0.336-1.153,1.472-0.818c0.387,0.113,0.77,0.238,1.155,0.354C78.607,56.1,78.827,56.253,78.702,56.633z"/>
	</g>
</g>
<ellipse fill="none" stroke="#232937" stroke-width="2" stroke-miterlimit="10" cx="74.665" cy="75.882" rx="71.625" ry="72.719"/>
</svg>
